<svg height="260pt" viewBox="0 0 805.57 260" width="806pt" xmlns="http://www.w3.org/2000/svg"><g transform="translate(4 256)"><path d="m-4 4v-260h805.57v260z" fill="#fff"/><ellipse cx="447.59" cy="-90" fill="none" rx="132.22" ry="18" stroke="#000"/><text font-family="Times,serif" font-size="14" text-anchor="middle" x="447.59" y="-84.95">[root] @repo/eslint-config#build</text><ellipse cx="447.59" cy="-18" fill="none" rx="87.18" ry="18" stroke="#000"/><text font-family="Times,serif" font-size="14" text-anchor="middle" x="447.59" y="-12.95">[root] ___ROOT___</text><path d="m447.59-71.7v24.16" fill="none" stroke="#000"/><path d="m451.1-47.62-3.51 10-3.49-10z" stroke="#000"/><ellipse cx="148.59" cy="-90" fill="none" rx="148.59" ry="18" stroke="#000"/><text font-family="Times,serif" font-size="14" text-anchor="middle" x="148.59" y="-84.95">[root] @repo/typescript-config#build</text><path d="m214.95-73.46c49.16 11.5 115.91 27.13 165.31 38.69" fill="none" stroke="#000"/><path d="m381.05-38.17 8.94 5.68-10.53 1.13z" stroke="#000"/><ellipse cx="502.59" cy="-162" fill="none" rx="133.75" ry="18" stroke="#000"/><text font-family="Times,serif" font-size="14" text-anchor="middle" x="502.59" y="-156.95">[root] @repo/zod-schemas#build</text><path d="m489-143.7c-6.33 8.06-13.99 17.81-20.99 26.72" fill="none" stroke="#000"/><path d="m470.9-115-8.93 5.71 3.43-10.03z" stroke="#000"/><path d="m429.68-146.58c-56.38 11.15-134.61 26.62-194.23 38.4" fill="none" stroke="#000"/><path d="m236.14-104.74-10.49-1.5 9.13-5.37z" stroke="#000"/><ellipse cx="527.59" cy="-234" fill="none" rx="99.97" ry="18" stroke="#000"/><text font-family="Times,serif" font-size="14" text-anchor="middle" x="527.59" y="-228.95">[root] deno-app-1#build</text><path d="m521.42-215.7c-2.7 7.55-5.93 16.58-8.94 25.02" fill="none" stroke="#000"/><path d="m515.87-189.77-6.66 8.24.07-10.59z" stroke="#000"/><ellipse cx="697.59" cy="-90" fill="none" rx="99.97" ry="18" stroke="#000"/><text font-family="Times,serif" font-size="14" text-anchor="middle" x="697.59" y="-84.95">[root] deno-app-2#build</text><path d="m645.19-74.33c-39.83 11.16-94.7 26.52-136.51 38.23" fill="none" stroke="#000"/><path d="m509.83-32.79-10.57-.68 8.69-6.06z" stroke="#000"/><ellipse cx="314.59" cy="-234" fill="none" rx="95.37" ry="18" stroke="#000"/><text font-family="Times,serif" font-size="14" text-anchor="middle" x="314.59" y="-228.95">[root] vue-app-1#build</text><g stroke="#000"><path d="m320.12-215.54c6.8 19.31 19.92 50.48 39.47 71.54 11.44 12.32 26.39 22.75 40.71 31.01" fill="none"/><path d="m401.66-116.23 7.07 7.89-10.45-1.76z"/><path d="m238.75-222.72c-50.23 8.53-109.63 22.57-125.16 42.72-14.39 18.68-2.04 44.02 11.81 62.89" fill="none"/><path d="m128.06-119.39 3.43 10.03-8.93-5.7z"/><path d="m356.32-217.46c26.97 10.04 62.37 23.22 91.59 34.1" fill="none"/><path d="m448.8-186.76 8.15 6.76-10.59-.2z"/><ellipse cx="217.59" cy="-162" fill="none" rx="95.37" ry="18"/></g><text font-family="Times,serif" font-size="14" text-anchor="middle" x="217.59" y="-156.95">[root] vue-app-2#build</text><path d="m266.37-146.15c34.45 10.48 80.92 24.62 118.17 35.96" fill="none" stroke="#000"/><path d="m385.29-113.62 8.55 6.26-10.59.44z" stroke="#000"/><path d="m200.89-144.05c-8.18 8.3-18.21 18.47-27.28 27.67" fill="none" stroke="#000"/><path d="m176.2-114.02-9.51 4.67 4.52-9.58z" stroke="#000"/></g></svg>